HIERARCHY
ROOT Hips
{
	OFFSET 272.094208 92.886261 -190.072601
	CHANNELS 6 Xposition Yposition Zposition Zrotation Yrotation Xrotation 
	JOINT LeftUpLeg
	{
		OFFSET 0.103458 1.857832 10.548514
		CHANNELS 3 Zrotation Yrotation Xrotation
		JOINT LeftLeg
		{
			OFFSET 43.500000 -0.000027 0.000013
			CHANNELS 3 Zrotation Yrotation Xrotation
			JOINT LeftFoot
			{
				OFFSET 42.372200 0.000008 -0.000018
				CHANNELS 3 Zrotation Yrotation Xrotation
				JOINT LeftToe
				{
					OFFSET 17.299995 -0.000003 0.000021
					CHANNELS 3 Zrotation Yrotation Xrotation
					End Site
					{
						OFFSET 0.000000 0.000000 0.000000
					}
				}
			}
		}
	}
	JOINT RightUpLeg
	{
		OFFSET 0.103456 1.857824 -10.548508
		CHANNELS 3 Zrotation Yrotation Xrotation
		JOINT RightLeg
		{
			OFFSET 43.500038 -0.000019 -0.000010
			CHANNELS 3 Zrotation Yrotation Xrotation
			JOINT RightFoot
			{
				OFFSET 42.372265 -0.000011 0.000021
				CHANNELS 3 Zrotation Yrotation Xrotation
				JOINT RightToe
				{
					OFFSET 17.300001 -0.000001 0.000008
					CHANNELS 3 Zrotation Yrotation Xrotation
					End Site
					{
						OFFSET 0.000000 0.000000 0.000000
					}
				}
			}
		}
	}
	JOINT Spine
	{
		OFFSET 6.901966 -2.603731 -0.000012
		CHANNELS 3 Zrotation Yrotation Xrotation
		JOINT Spine1
		{
			OFFSET 12.588102 -0.000004 0.000024
			CHANNELS 3 Zrotation Yrotation Xrotation
			JOINT Spine2
			{
				OFFSET 12.343197 0.000004 0.000001
				CHANNELS 3 Zrotation Yrotation Xrotation
				JOINT Neck
				{
					OFFSET 25.832897 -0.000006 0.000001
					CHANNELS 3 Zrotation Yrotation Xrotation
					JOINT Head
					{
						OFFSET 11.766610 0.000010 -0.000015
						CHANNELS 3 Zrotation Yrotation Xrotation
						End Site
						{
							OFFSET 0.000000 0.000000 0.000000
						}
					}
				}
				JOINT LeftShoulder
				{
					OFFSET 19.745909 -1.480370 6.000081
					CHANNELS 3 Zrotation Yrotation Xrotation
					JOINT LeftArm
					{
						OFFSET 11.284137 -0.000004 -0.000017
						CHANNELS 3 Zrotation Yrotation Xrotation
						JOINT LeftForeArm
						{
							OFFSET 33.000042 0.000009 0.000020
							CHANNELS 3 Zrotation Yrotation Xrotation
							JOINT LeftHand
							{
								OFFSET 25.200012 0.000019 0.000012
								CHANNELS 3 Zrotation Yrotation Xrotation
								End Site
								{
									OFFSET 0.000000 0.000000 0.000000
								}
							}
						}
					}
				}
				JOINT RightShoulder
				{
					OFFSET 19.746096 -1.480375 -6.000086
					CHANNELS 3 Zrotation Yrotation Xrotation
					JOINT RightArm
					{
						OFFSET 11.284146 -0.000018 -0.000021
						CHANNELS 3 Zrotation Yrotation Xrotation
						JOINT RightForeArm
						{
							OFFSET 33.000084 0.000018 0.000009
							CHANNELS 3 Zrotation Yrotation Xrotation
							JOINT RightHand
							{
								OFFSET 25.199770 0.000139 0.000425
								CHANNELS 3 Zrotation Yrotation Xrotation
								End Site
								{
									OFFSET 0.000000 0.000000 0.000000
								}
							}
						}
					}
				}
			}
		}
	}
}
MOTION
Frames: 11
Frame Time: 0.033333
-243.714600 90.752861 196.124893 89.957444 -1.904992 36.703125 132.921205 -0.857698 -179.169454 -77.994415 -1.136192 -1.307691 74.170821 -0.483819 -4.794566 21.454545 0.003096 0.000003 168.256874 -0.093094 -178.699332 -23.714644 2.640976 -1.156504 82.411983 0.214460 -2.170057 21.454557 -0.003111 -0.000018 12.469174 0.112289 1.043259 14.926332 0.088826 2.092214 14.608456 0.101596 2.091654 20.188630 -9.788065 -2.380330 -9.522360 9.213853 -5.159835 165.631964 -77.557105 13.114075 -15.214610 55.033088 3.765264 -86.903065 -5.905434 2.581203 -5.620638 -17.891648 35.240279 165.250799 78.127262 -13.519013 -17.364202 -42.848813 -7.076721 -78.346136 10.780710 -2.587059 -4.638445 14.315008 -19.846638 
-246.026901 92.104248 196.847305 92.909240 -1.942646 37.938723 131.472822 1.071105 178.150595 -66.790296 -1.982078 -1.661414 74.915707 -0.000351 -4.281884 21.454551 0.003088 -0.000001 171.756663 1.404008 178.570146 -18.069995 4.273841 7.344099 84.698171 -5.533373 -1.922665 21.454558 -0.003109 -0.000018 11.841845 -0.514776 1.273278 13.658811 -1.176444 2.476830 13.340978 -1.161330 2.483895 20.119154 -9.529950 -2.908362 -8.557541 10.688873 -6.058023 160.568964 -80.050186 18.150531 -7.469524 48.439910 20.014572 -80.708480 -7.922196 2.451439 -6.763405 -19.391670 34.602633 165.468136 81.753615 -13.157691 -17.920658 -38.453443 -7.746418 -85.066482 7.163192 -2.628452 -3.049032 10.856028 -22.137724 
-248.498093 91.931747 197.625000 93.990868 -2.504468 38.651918 132.203912 1.528501 175.187686 -55.966410 -1.577683 -1.423049 75.528184 -0.422754 -5.227159 21.454555 0.003100 0.000001 174.949435 1.899596 -174.765471 -20.908766 3.598640 8.681896 82.017704 -5.721467 1.854899 21.454558 -0.003106 -0.000018 11.250386 -0.798972 1.784125 12.462315 -1.785646 3.471995 12.144704 -1.764518 3.482715 18.939618 -9.600242 -3.096848 -6.447740 11.896630 -6.453002 145.501963 -82.923018 33.216354 -1.732884 41.721569 35.130805 -77.802507 -8.574450 2.372084 -10.512955 -17.029665 39.196106 155.032467 84.526432 -23.563085 -16.447285 -32.223098 -8.492676 -90.209764 3.908433 -2.629481 -2.951029 8.793548 -24.079456 
-251.347198 90.733238 198.748703 93.031480 -2.460099 38.977905 136.138907 1.868389 173.134845 -45.843991 -0.931279 -0.113994 75.204959 -1.214452 -4.671518 21.454551 0.003094 0.000000 179.046265 2.195300 -167.196105 -24.620211 1.526735 1.850977 82.343531 -1.142887 1.018979 21.454563 -0.003107 -0.000018 10.901848 -0.819638 2.255291 11.756424 -1.864383 4.415962 11.439179 -1.837579 4.427119 17.218161 -10.703682 -2.831085 -3.172287 12.993684 -6.222662 114.634972 -84.525572 64.107486 3.250843 34.338035 48.914277 -78.588758 -7.740734 2.347687 -13.980503 -13.914097 44.095237 88.629764 85.732125 -90.038272 -15.307062 -27.268723 -9.383790 -92.859065 2.351018 -2.639082 -2.703082 8.300001 -25.865470 
-254.455399 89.072693 200.135101 90.691682 -2.429540 39.588500 141.931276 1.992100 173.177015 -38.317477 -0.530533 -0.192402 74.989699 -1.286417 -5.066652 21.454553 0.003087 0.000000 -176.639934 1.530700 -169.246774 -25.348680 4.109294 1.164259 85.901206 -0.765492 0.944995 21.454560 -0.003112 -0.000017 10.544830 -0.552847 2.585648 11.047479 -1.350215 5.106853 10.730675 -1.319254 5.114889 18.273925 -10.704300 -2.591379 -1.409739 12.273180 -5.505809 88.169006 -83.380081 90.662640 7.651620 26.821318 61.270185 -81.490365 -6.973505 2.419150 -16.866618 -9.916122 47.364637 71.182387 82.892453 -107.619855 -16.006372 -19.713340 -12.859406 -91.212505 3.345059 -2.634894 -3.487471 9.699852 -25.472062 
-257.532013 87.268494 201.734604 88.436497 -1.564077 40.385375 148.095085 3.045399 172.150287 -34.734715 0.167517 -0.542646 74.141478 -0.550834 -3.330778 21.454553 0.003095 -0.000004 -174.980731 0.789903 -168.500931 -31.659067 3.889640 0.953945 88.262846 -0.654058 0.876132 21.454557 -0.003108 -0.000017 10.314720 -0.353976 2.678307 10.594892 -0.951866 5.312969 10.278247 -0.919672 5.318600 19.940379 -11.387701 -2.338947 -0.227757 12.412574 -4.986083 83.681026 -83.708640 95.100214 8.364505 19.943352 68.937325 -84.149782 -6.257738 2.484947 -19.957319 -4.167267 52.522437 63.039914 81.690640 -115.766461 -20.506222 -15.444632 -15.687201 -84.807645 7.298390 -2.626468 -4.334111 8.997561 -29.795344 
-259.893402 86.039558 203.096405 88.633234 0.892761 41.820132 151.235237 5.871993 169.267237 -34.758935 0.397930 1.938075 72.417231 1.530182 9.038300 21.454551 0.003092 -0.000002 -177.784456 1.923398 -167.323625 -42.929399 0.855290 1.950828 85.566568 -0.915191 2.444854 21.454558 -0.003106 -0.000017 10.231773 -0.784753 2.453197 10.414275 -1.787210 4.826204 10.097252 -1.757924 4.836879 21.406306 -9.532273 -2.268248 0.043011 10.870509 -4.451507 81.237095 -84.383572 97.475378 9.535989 17.155328 70.830441 -84.622834 -6.115184 2.495695 -18.949001 3.513696 57.370358 62.060813 82.856717 -116.664535 -24.803781 -17.575697 -11.204369 -80.613014 10.628719 -2.675084 -7.234565 9.704208 -39.636640 
-262.069489 84.755814 204.654999 90.126347 4.116780 43.826783 151.019321 10.935585 174.021254 -39.443598 0.018282 -0.980330 74.270610 3.321103 8.672342 21.454555 0.003084 0.000000 175.231795 6.541200 -167.314213 -60.654593 -0.621976 2.150744 75.413690 0.213221 5.917115 21.454560 -0.003108 -0.000016 10.529339 -1.548488 2.109817 10.991860 -3.290466 4.064358 10.674080 -3.265738 4.084134 22.166727 -8.691557 -2.334951 -1.521060 10.204713 -4.490849 88.582991 -85.510922 90.063093 11.352380 18.548804 67.483034 -81.635275 -6.998415 2.427160 -17.566212 3.545204 61.957069 74.054625 84.707794 -104.634468 -24.430171 -25.368969 5.345388 -86.632166 6.988781 -2.685622 -9.340958 12.001484 -42.576947 
-264.865204 83.979919 206.217606 89.463300 6.374880 45.994385 153.163154 12.588304 178.647204 -43.462065 -1.987046 -2.533454 77.753378 4.011610 8.142607 21.454553 0.003101 0.000000 168.076721 9.070496 -167.958928 -78.104928 -2.156613 1.637786 68.243808 0.927751 5.560476 21.454555 -0.003108 -0.000019 11.453722 -1.806522 1.894391 12.841953 -3.812279 3.578026 12.523789 -3.790472 3.600982 19.986858 -9.344436 -2.463212 -2.913624 10.278105 -4.931010 137.451014 -86.346821 41.079736 12.025199 21.561189 58.931890 -79.625075 -7.881318 2.401895 -18.154250 0.579519 62.120946 113.650557 87.268992 -64.896312 -26.061314 -34.515244 21.694730 -97.673925 1.227146 -2.776267 -8.346109 16.612866 -32.654848 
-267.493011 83.461403 207.723099 87.848855 7.823242 46.208316 155.675038 11.512802 177.833742 -47.058794 -2.244983 -1.600675 81.446092 3.134361 8.386023 21.454555 0.003094 0.000001 159.832096 8.191192 -170.952832 -93.081982 -4.198897 2.639142 68.291011 -0.436836 3.500507 21.454558 -0.003110 -0.000016 12.413345 -1.874009 2.034625 14.756033 -3.992364 3.815254 14.437881 -3.969129 3.839293 18.383862 -10.442158 -2.014782 -4.132708 11.177734 -4.938977 172.566068 -83.409799 5.887810 12.225925 26.081854 48.579126 -79.281735 -8.318507 2.417578 -19.636956 -4.185069 54.387092 155.978011 84.871685 -22.593308 -25.976394 -42.188368 28.871575 -108.235105 -0.882746 -3.098305 -11.843611 17.856377 -33.339069 
-269.967712 83.147163 209.038696 86.511162 9.113074 47.079708 158.426566 10.600904 177.414314 -49.393182 -2.326374 -0.475005 84.232789 2.247465 8.877555 21.454550 0.003091 0.000000 151.875840 6.443602 -173.744877 -104.263302 -4.920453 6.312913 72.399083 -2.973613 4.104225 21.454562 -0.003110 -0.000014 13.345968 -1.990870 1.875796 16.626400 -4.230723 3.447599 16.307992 -4.209705 3.473092 18.247532 -10.682894 -1.476358 -6.024022 11.382200 -4.644368 -170.545042 -79.188537 -11.161989 9.444185 32.006837 37.185193 -80.382399 -7.895039 2.435466 -17.125436 -11.335045 40.849821 157.115511 80.918836 -21.645134 -23.928362 -50.214803 31.499398 -116.619497 -2.099308 -3.374049 -17.589279 16.283497 -39.828725 
